#!OML:ASF H:\ManfredETheater\Project 1\Capture day 1\Session 1\subject.ASF
:FULLY-SPECIFIED
:DEGREES
79
root -0.317656 17.2639 -17.8049 10.9843 5.74234 3.26096
lowerback 15.406 -1.9674 -4.13104
upperback 0.0380626 -3.34949 -0.100441
thorax -8.38292 -1.44217 2.97125
lowerneck -18.026 -1.51618 -1.41289
upperneck 14.8335 -2.00649 1.68205
head 7.56019 -0.872509 0.551894
rclavicle -3.36692e-014 7.65321e-015
rhumerus -66.9127 2.42094 -88.3464
rradius 90.8178
rwrist -0.0650583
rhand -30.4263 10.8487
rfingers 7.12502
rthumb -3.72912 -19.0984
lclavicle -3.36692e-014 7.65321e-015
lhumerus -39.6929 -19.4177 103.935
lradius 120.86
lwrist 12.1982
lhand -20.9353 -18.2734
lfingers 7.12502
lthumb 5.43686 11.6369
rfemur -45.5549 -18.4026 12.6648
rtibia 114.603
rfoot -15.9261 -3.17303
rtoes -28.6888
lfemur -32.3022 -2.99871 -28.7958
ltibia 49.9274
lfoot -21.2461 -7.73297
ltoes 5.03101
80
root -0.3212 17.3125 -17.3796 11.0153 5.66945 3.41814
lowerback 15.2433 -2.28755 -4.17749
upperback -0.103298 -3.77695 -0.072391
thorax -8.40722 -1.64327 3.11424
lowerneck -18.1112 -1.199 -1.12464
upperneck 15.0619 -1.5801 1.29414
head 7.63754 -0.68991 0.426131
rclavicle 8.72168e-015 6.4605e-015
rhumerus -68.791 2.7463 -87.3842
rradius 92.1798
rwrist -0.270235
rhand -30.2095 11.2945
rfingers 7.12502
rthumb -3.51977 -18.6562
lclavicle 8.72168e-015 6.4605e-015
lhumerus -38.081 -20.1942 103.669
lradius 122.257
lwrist 12.6541
lhand -21.068 -18.3852
lfingers 7.12502
lthumb 5.30871 11.5283
rfemur -50.2189 -18.6499 12.9655
rtibia 115.704
rfoot -16.838 -2.83221
rtoes -28.9496
lfemur -30.1446 -3.32588 -28.7583
ltibia 48.9391
lfoot -21.7852 -7.34931
ltoes 3.64162
81
root -0.323043 17.3841 -16.9478 10.9897 5.44492 3.51297
lowerback 15.0779 -2.57975 -4.19099
upperback -0.209203 -4.1578 -0.0141311
thorax -8.39349 -1.82448 3.25806
lowerneck -18.195 -0.840261 -0.784985
upperneck 15.2549 -1.09269 0.818934
head 7.70477 -0.48468 0.270429
rclavicle -1.48592e-014 4.77083e-015
rhumerus -70.5065 3.27261 -86.525
rradius 93.5824
rwrist -0.360765
rhand -29.9543 11.7297
rfingers 7.12502
rthumb -3.27337 -18.2249
lclavicle -1.48592e-014 4.77083e-015
lhumerus -36.9195 -21.0817 103.383
lradius 123.78
lwrist 13.537
lhand -21.0679 -18.5162
lfingers 7.12502
lthumb 5.30883 11.3973
rfemur -54.6619 -18.3391 13.4395
rtibia 115.949
rfoot -17.5142 -2.75271
rtoes -29.1873
lfemur -27.8096 -3.58159 -28.6856
ltibia 47.6866
lfoot -21.8941 -6.99672
ltoes 1.73022
82
root -0.32316 17.4805 -16.508 10.9171 5.06351 3.51936
lowerback 14.9004 -2.83663 -4.14034
upperback -0.284743 -4.47657 0.075261
thorax -8.3459 -1.97962 3.38256
lowerneck -18.2787 -0.445773 -0.432397
upperneck 15.4244 -0.551238 0.304433
head 7.76823 -0.257656 0.106113
rclavicle -2.41523e-014 -7.45443e-015
rhumerus -72.0469 3.93425 -85.7722
rradius 94.966
rwrist -0.403456
rhand -29.6635 12.1288
rfingers 7.12502
rthumb -2.99247 -17.83
lclavicle -2.41523e-014 -7.45443e-015
lhumerus -36.1999 -22.1038 103.09
lradius 125.372
lwrist 14.7145
lhand -20.9135 -18.6642
lfingers 7.12502
lthumb 5.45791 11.2455
rfemur -58.751 -17.4903 14.0227
rtibia 115.337
rfoot -18.0214 -2.95232
rtoes -29.4635
lfemur -25.316 -3.78911 -28.561
ltibia 46.1726
lfoot -21.5117 -6.6686
ltoes -0.695366
83
root -0.320646 17.6018 -16.0615 10.8122 4.52492 3.42569
lowerback 14.721 -3.04741 -3.99983
upperback -0.335361 -4.71547 0.196075
thorax -8.28029 -2.10054 3.47124
lowerneck -18.3603 -0.0366526 -0.0817032
upperneck 15.5614 0.0166308 -0.235175
head 7.82577 -0.0214503 -0.0628833
rclavicle -2.02263e-014 4.87022e-015
rhumerus -73.4037 4.6588 -85.1153
rradius 96.2728
rwrist -0.43668
rhand -29.3695 12.4634
rfingers 7.12502
rthumb -2.70854 -17.4991
lclavicle -2.02263e-014 4.87022e-015
lhumerus -35.902 -23.2559 102.831
lradius 126.951
lwrist 15.9776
lhand -20.6089 -18.7881
lfingers 7.12502
lthumb 5.75191 11.1138
rfemur -62.3847 -16.1895 14.6438
rtibia 113.899
rfoot -18.4235 -3.40663
rtoes -29.8411
lfemur -22.7193 -3.97759 -28.3901
ltibia 44.4305
lfoot -20.5434 -6.34465
ltoes -3.52159
84
root -0.316185 17.7462 -15.6092 10.6717 3.86056 3.25666
lowerback 14.5658 -3.20568 -3.79183
upperback -0.361617 -4.87191 0.343189
thorax -8.21185 -2.18439 3.53319
lowerneck -18.4285 0.371712 0.245555
upperneck 15.6587 0.591177 -0.777866
head 7.87333 0.215603 -0.228016
rclavicle 6.83074e-014 -1.13307e-014
rhumerus -74.573 5.37297 -84.5414
rradius 97.4731
rwrist -0.505368
rhand -29.0829 12.7251
rfingers 7.12502
rthumb -2.43177 -17.2408
lclavicle 6.83074e-014 -1.13307e-014
lhumerus -35.9921 -24.4932 102.653
lradius 128.413
lwrist 17.0192
lhand -20.2038 -18.899
lfingers 7.12502
lthumb 6.14305 10.992
rfemur -65.4591 -14.5967 15.2236
rtibia 111.686
rfoot -18.7675 -4.04325
rtoes -30.3444
lfemur -20.0692 -4.17049 -28.2097
ltibia 42.524
lfoot -18.9171 -6.06226
ltoes -6.63816
85
root -0.311447 17.9105 -15.1524 10.4975 3.10619 3.04536
lowerback 14.4517 -3.30608 -3.56161
upperback -0.362269 -4.94745 0.513707
thorax -8.14537 -2.22973 3.5928
lowerneck -18.4816 0.76358 0.526515
upperneck 15.7108 1.15254 -1.30221
head 7.90826 0.445107 -0.380794
rclavicle 4.14839e-014 3.67752e-015
rhumerus -75.5392 6.01376 -84.0303
rradius 98.5323
rwrist -0.608561
rhand -28.8046 12.9342
rfingers 7.12502
rthumb -2.16302 -17.0346
lclavicle 4.14839e-014 3.67752e-015
lhumerus -36.4315 -25.7552 102.619
lradius 129.648
lwrist 17.5772
lhand -19.8013 -18.9944
lfingers 7.12502
lthumb 6.53162 10.8849
rfemur -67.9202 -12.8691 15.7223
rtibia 108.779
rfoot -19.0693 -4.75766
rtoes -30.9193
lfemur -17.4384 -4.36932 -28.0531
ltibia 40.5424
lfoot -16.5721 -5.85705
ltoes -9.8133
